<svg xmlns="http://www.w3.org/2000/svg" xmlns:xlink="http://www.w3.org/1999/xlink" version="1.1" x="0px" y="0px" viewBox="0 0 100 100" style="enable-background:new 0 0 100 100;" xml:space="preserve"><g><path d="M74.8,29.6V13.3H63.8v7.5c-4.2-2-8.9-3.2-13.8-3.2c-17.4,0-31.6,14.2-31.6,31.6v36.4h15h32.4h15.9V49.3   C81.6,41.8,79.1,35,74.8,29.6z M67.8,17.3h2.9v8.1c-0.9-0.8-1.9-1.6-2.9-2.3V17.3z M40.4,81.7h-3.1v-5.3h3.1V81.7z M47.5,81.7h-3.2   v-5.3h3.2V81.7z M54.7,81.7h-3.2v-5.3h3.2V81.7z M61.7,81.7h-3.1v-5.3h3.1V81.7z M77.6,81.7H65.7v-9.3H33.3v9.3h-11V49.3   C22.4,34,34.8,21.6,50,21.6S77.6,34,77.6,49.3V81.7z"></path><path d="M35.3,35.6c-5,0-9.1,4.1-9.1,9.1c0,5,4.1,9.1,9.1,9.1c5,0,9.1-4.1,9.1-9.1C44.4,39.6,40.3,35.6,35.3,35.6z M35.3,49.7   c-2.8,0-5.1-2.3-5.1-5.1c0-2.8,2.3-5.1,5.1-5.1c2.8,0,5.1,2.3,5.1,5.1C40.4,47.4,38.1,49.7,35.3,49.7z"></path><path d="M54.7,44.6c0,5,4.1,9.1,9.1,9.1s9.1-4.1,9.1-9.1c0-5-4.1-9.1-9.1-9.1S54.7,39.6,54.7,44.6z M68.8,44.6   c0,2.8-2.3,5.1-5.1,5.1s-5.1-2.3-5.1-5.1c0-2.8,2.3-5.1,5.1-5.1S68.8,41.8,68.8,44.6z"></path><path d="M44.5,64.2h10v-10h-10V64.2z M48.5,58.2h2v2h-2V58.2z"></path></g></svg>